HIERARCHY
ROOT Hips
{
	OFFSET 0.000000 100.481300 0.000000
	CHANNELS 6 Xposition Yposition Zposition Xrotation Yrotation Zrotation 
	JOINT Spine
	{
		OFFSET -0.279200 12.230698 -2.892100
		CHANNELS 3 Xrotation Yrotation Zrotation
		JOINT Spine1
		{
			OFFSET -0.232667 10.192268 -1.242267
			CHANNELS 3 Xrotation Yrotation Zrotation
			JOINT Spine1_split
			{
				OFFSET -0.232667 10.192268 -1.242267
				CHANNELS 3 Xrotation Yrotation Zrotation
				JOINT Spine2
				{
					OFFSET -0.232667 10.192268 -1.242267
					CHANNELS 3 Xrotation Yrotation Zrotation
					JOINT Neck
					{
						OFFSET -0.418800 17.814194 8.416900
						CHANNELS 3 Xrotation Yrotation Zrotation
						JOINT Head
						{
							OFFSET 0.000000 7.031097 3.806800
							CHANNELS 3 Xrotation Yrotation Zrotation
							JOINT HeadTop_End
							{
								OFFSET 0.000000 24.646606 12.978600
								CHANNELS 3 Xrotation Yrotation Zrotation
								End Site
								{
									OFFSET 0.000000 0.000000 0.000000
								}
							}
						}
					}
					JOINT LeftShoulder
					{
						OFFSET 8.476499 7.247704 -3.868750
						CHANNELS 3 Xrotation Yrotation Zrotation
						JOINT LeftShoulder_split
						{
							OFFSET 8.476499 7.247704 -3.868750
							CHANNELS 3 Xrotation Yrotation Zrotation
							JOINT LeftArm
							{
								OFFSET 9.308998 -2.777710 0.208600
								CHANNELS 3 Xrotation Yrotation Zrotation
								JOINT LeftForeArm
								{
									OFFSET 29.972298 0.000000 0.000000
									CHANNELS 3 Xrotation Yrotation Zrotation
									JOINT LeftHand
									{
										OFFSET 26.026505 0.000000 0.000000
										CHANNELS 3 Xrotation Yrotation Zrotation
										JOINT LeftHandThumb1
										{
											OFFSET 12.240501 -7.147949 9.207150
											CHANNELS 3 Xrotation Yrotation Zrotation
											JOINT LeftHandThumb2
											{
												OFFSET 4.138618 -2.389435 2.389433
												CHANNELS 3 Xrotation Yrotation Zrotation
												JOINT LeftHandThumb3
												{
													OFFSET 2.726913 -1.574387 1.574386
													CHANNELS 3 Xrotation Yrotation Zrotation
													JOINT LeftHandThumb4
													{
														OFFSET 3.941010 -2.275345 2.275342
														CHANNELS 3 Xrotation Yrotation Zrotation
														End Site
														{
															OFFSET 0.000000 0.000000 0.000000
														}
													}
												}
											}
										}
										JOINT LeftHandIndex1
										{
											OFFSET 24.424698 -1.985611 5.953459
											CHANNELS 3 Xrotation Yrotation Zrotation
											JOINT LeftHandIndex2
											{
												OFFSET 6.426697 0.000000 0.000000
												CHANNELS 3 Xrotation Yrotation Zrotation
												JOINT LeftHandIndex3
												{
													OFFSET 5.337898 0.000000 0.000000
													CHANNELS 3 Xrotation Yrotation Zrotation
													JOINT LeftHandIndex4
													{
														OFFSET 4.409401 0.000000 0.000000
														CHANNELS 3 Xrotation Yrotation Zrotation
														End Site
														{
															OFFSET 0.000000 0.000000 0.000000
														}
													}
												}
											}
										}
										JOINT LeftHandMiddle1
										{
											OFFSET 23.810104 0.000000 0.000000
											CHANNELS 3 Xrotation Yrotation Zrotation
											JOINT LeftHandMiddle2
											{
												OFFSET 7.176498 0.000000 0.000000
												CHANNELS 3 Xrotation Yrotation Zrotation
												JOINT LeftHandMiddle3
												{
													OFFSET 6.774902 0.000000 0.000000
													CHANNELS 3 Xrotation Yrotation Zrotation
													JOINT LeftHandMiddle4
													{
														OFFSET 5.403328 0.000000 0.000000
														CHANNELS 3 Xrotation Yrotation Zrotation
														End Site
														{
															OFFSET 0.000000 0.000000 0.000000
														}
													}
												}
											}
										}
										JOINT LeftHandRing1
										{
											OFFSET 22.908401 -0.839279 -6.020567
											CHANNELS 3 Xrotation Yrotation Zrotation
											JOINT LeftHandRing2
											{
												OFFSET 6.337502 0.000000 0.000000
												CHANNELS 3 Xrotation Yrotation Zrotation
												JOINT LeftHandRing3
												{
													OFFSET 5.779297 0.000000 0.000000
													CHANNELS 3 Xrotation Yrotation Zrotation
													JOINT LeftHandRing4
													{
														OFFSET 4.965698 0.000000 0.000000
														CHANNELS 3 Xrotation Yrotation Zrotation
														End Site
														{
															OFFSET 0.000000 0.000000 0.000000
														}
													}
												}
											}
										}
										JOINT LeftHandPinky1
										{
											OFFSET 20.037003 -1.530319 -10.950146
											CHANNELS 3 Xrotation Yrotation Zrotation
											JOINT LeftHandPinky2
											{
												OFFSET 5.254700 0.000000 0.000000
												CHANNELS 3 Xrotation Yrotation Zrotation
												JOINT LeftHandPinky3
												{
													OFFSET 4.810204 0.000000 0.000000
													CHANNELS 3 Xrotation Yrotation Zrotation
													JOINT LeftHandPinky4
													{
														OFFSET 3.647202 0.000000 0.000000
														CHANNELS 3 Xrotation Yrotation Zrotation
														End Site
														{
															OFFSET 0.000000 0.000000 0.000000
														}
													}
												}
											}
										}
									}
								}
							}
						}
					}
					JOINT RightShoulder
					{
						OFFSET -7.570500 7.247704 -3.868750
						CHANNELS 3 Xrotation Yrotation Zrotation
						JOINT RightShoulder_split
						{
							OFFSET -7.570500 7.247704 -3.868750
							CHANNELS 3 Xrotation Yrotation Zrotation
							JOINT RightArm
							{
								OFFSET -9.308998 -2.777710 0.208500
								CHANNELS 3 Xrotation Yrotation Zrotation
								JOINT RightForeArm
								{
									OFFSET -29.972300 0.000000 0.000000
									CHANNELS 3 Xrotation Yrotation Zrotation
									JOINT RightHand
									{
										OFFSET -26.026505 0.000000 0.000000
										CHANNELS 3 Xrotation Yrotation Zrotation
										JOINT RightHandThumb1
										{
											OFFSET -12.240601 -7.148026 9.207092
											CHANNELS 3 Xrotation Yrotation Zrotation
											JOINT RightHandThumb2
											{
												OFFSET -4.138618 -2.389435 2.389433
												CHANNELS 3 Xrotation Yrotation Zrotation
												JOINT RightHandThumb3
												{
													OFFSET -2.726974 -1.574417 1.574421
													CHANNELS 3 Xrotation Yrotation Zrotation
													JOINT RightHandThumb4
													{
														OFFSET -3.941010 -2.275345 2.275343
														CHANNELS 3 Xrotation Yrotation Zrotation
														End Site
														{
															OFFSET 0.000000 0.000000 0.000000
														}
													}
												}
											}
										}
										JOINT RightHandIndex1
										{
											OFFSET -24.424698 -1.985657 5.953444
											CHANNELS 3 Xrotation Yrotation Zrotation
											JOINT RightHandIndex2
											{
												OFFSET -6.426697 0.000000 0.000000
												CHANNELS 3 Xrotation Yrotation Zrotation
												JOINT RightHandIndex3
												{
													OFFSET -5.337898 0.000000 0.000000
													CHANNELS 3 Xrotation Yrotation Zrotation
													JOINT RightHandIndex4
													{
														OFFSET -4.409401 0.000000 0.000000
														CHANNELS 3 Xrotation Yrotation Zrotation
														End Site
														{
															OFFSET 0.000000 0.000000 0.000000
														}
													}
												}
											}
										}
										JOINT RightHandMiddle1
										{
											OFFSET -23.810097 0.000000 0.000000
											CHANNELS 3 Xrotation Yrotation Zrotation
											JOINT RightHandMiddle2
											{
												OFFSET -7.176498 0.000000 0.000000
												CHANNELS 3 Xrotation Yrotation Zrotation
												JOINT RightHandMiddle3
												{
													OFFSET -6.774902 0.000000 0.000000
													CHANNELS 3 Xrotation Yrotation Zrotation
													JOINT RightHandMiddle4
													{
														OFFSET -5.403328 0.000000 0.000000
														CHANNELS 3 Xrotation Yrotation Zrotation
														End Site
														{
															OFFSET 0.000000 0.000000 0.000000
														}
													}
												}
											}
										}
										JOINT RightHandRing1
										{
											OFFSET -22.908302 -0.839325 -6.020576
											CHANNELS 3 Xrotation Yrotation Zrotation
											JOINT RightHandRing2
											{
												OFFSET -6.337502 0.000000 0.000000
												CHANNELS 3 Xrotation Yrotation Zrotation
												JOINT RightHandRing3
												{
													OFFSET -5.779297 0.000000 0.000000
													CHANNELS 3 Xrotation Yrotation Zrotation
													JOINT RightHandRing4
													{
														OFFSET -4.965698 0.000000 0.000000
														CHANNELS 3 Xrotation Yrotation Zrotation
														End Site
														{
															OFFSET 0.000000 0.000000 0.000000
														}
													}
												}
											}
										}
										JOINT RightHandPinky1
										{
											OFFSET -20.037003 -1.530334 -10.950259
											CHANNELS 3 Xrotation Yrotation Zrotation
											JOINT RightHandPinky2
											{
												OFFSET -5.254700 0.000000 0.000000
												CHANNELS 3 Xrotation Yrotation Zrotation
												JOINT RightHandPinky3
												{
													OFFSET -4.810204 0.000000 0.000000
													CHANNELS 3 Xrotation Yrotation Zrotation
													JOINT RightHandPinky4
													{
														OFFSET -3.647202 0.000000 0.000000
														CHANNELS 3 Xrotation Yrotation Zrotation
														End Site
														{
															OFFSET 0.000000 0.000000 0.000000
														}
													}
												}
											}
										}
									}
								}
							}
						}
					}
				}
			}
		}
	}
	JOINT LeftUpLeg
	{
		OFFSET 15.427100 -6.655098 0.678600
		CHANNELS 3 Xrotation Yrotation Zrotation
		JOINT LeftLeg
		{
			OFFSET 4.081073 -39.591068 13.024000
			CHANNELS 3 Xrotation Yrotation Zrotation
			JOINT LeftFoot
			{
				OFFSET -4.081074 -37.707932 -15.979700
				CHANNELS 3 Xrotation Yrotation Zrotation
				JOINT LeftToeBase
				{
					OFFSET 5.346399 -15.068900 20.645000
					CHANNELS 3 Xrotation Yrotation Zrotation
					JOINT LeftToe_End
					{
						OFFSET 2.754700 0.931300 11.300900
						CHANNELS 3 Xrotation Yrotation Zrotation
						End Site
						{
							OFFSET 0.000000 0.000000 0.000000
						}
					}
				}
			}
		}
	}
	JOINT RightUpLeg
	{
		OFFSET -15.569500 -6.655098 0.678600
		CHANNELS 3 Xrotation Yrotation Zrotation
		JOINT RightLeg
		{
			OFFSET -4.081825 -39.591045 13.023800
			CHANNELS 3 Xrotation Yrotation Zrotation
			JOINT RightFoot
			{
				OFFSET 4.081824 -37.707954 -15.979600
				CHANNELS 3 Xrotation Yrotation Zrotation
				JOINT RightToeBase
				{
					OFFSET -5.346400 -15.068900 20.645000
					CHANNELS 3 Xrotation Yrotation Zrotation
					JOINT RightToe_End
					{
						OFFSET -2.754700 0.931300 11.300900
						CHANNELS 3 Xrotation Yrotation Zrotation
						End Site
						{
							OFFSET 0.000000 0.000000 0.000000
						}
					}
				}
			}
		}
	}
}
MOTION
Frames: 4
Frame Time: 0.016667
0.343785 94.238083 -1.789700 -7.163519 -4.415589 3.728791 5.301385 2.203773 -2.839705 1.478230 0.730365 -0.788770 0.000000 0.000000 0.000000 1.440798 0.721971 -0.741219 2.260305 5.360284 1.627124 3.299470 -10.639880 2.336761 -0.000000 -0.000000 0.000000 -0.595444 -16.331998 -20.041826 0.000000 0.000000 0.000000 11.139994 0.583280 -33.762404 0.051921 -89.545050 0.051612 -131.220829 -7.501354 10.656123 -12.800143 -17.470121 4.121646 1.000140 0.731303 -1.438312 -7.335818 -0.421702 13.147356 -0.000001 -0.000001 0.000004 -3.532558 4.254365 -63.954572 3.402094 5.315523 -65.218922 1.034626 3.326113 -34.549832 -0.000001 -0.000001 -0.000004 2.434393 7.296046 -69.364089 3.297859 5.266366 -64.088649 0.787094 2.934907 -30.019566 0.000000 0.000001 -0.000001 4.717043 8.075508 -77.582268 2.056308 4.456880 -49.517642 1.539983 3.959690 -42.490614 0.000001 0.000001 0.000002 6.410322 8.363722 -80.414556 1.722727 4.149895 -45.074430 0.636252 2.657142 -26.928195 -0.000000 -0.000001 0.000001 0.754162 18.436588 11.539478 0.000000 0.000000 0.000000 10.691746 23.557099 38.362201 0.000487 97.963880 -0.000478 -34.546895 -20.180666 22.179139 20.470545 7.475585 18.843589 4.151721 -12.160912 -33.847996 -6.346114 -41.944059 -36.535474 -0.000000 0.000000 -0.000001 -0.887076 1.427988 12.684530 1.917404 -3.767461 53.934322 3.057992 -4.374572 69.896768 0.000000 0.000000 0.000001 0.770890 -5.199599 54.618827 5.563887 -4.568240 101.238601 4.771466 -4.655766 91.407875 -0.000001 0.000001 0.000002 6.934477 -8.544299 63.908775 2.909284 -4.317415 67.934701 1.862851 -3.727210 53.099448 -0.000000 -0.000000 -0.000000 8.373397 -8.171768 73.989923 2.173674 -3.940973 57.745390 1.042018 -2.937890 39.049885 -0.000001 -0.000000 -0.000001 -9.534685 11.516878 6.556700 12.911211 6.685025 0.717733 5.342028 0.888095 -7.298388 -0.000064 0.000000 -0.000002 0.000000 0.000002 0.000000 6.836362 -15.527445 -7.768608 18.912585 -8.194885 -3.069678 -18.065799 -6.986732 9.282391 -2.342332 -0.000000 0.000002 0.000000 -0.000003 -0.000000 
0.527824 93.887848 -1.813902 -7.081451 -4.568488 3.718697 5.297863 2.131447 -2.821114 1.478230 0.635006 -0.779718 0.000000 0.000000 0.000000 1.440799 0.631945 -0.712958 2.269832 5.220007 1.536724 3.181582 -10.468705 2.168120 0.000000 -0.000000 0.000000 -0.595445 -16.332000 -20.041822 0.000000 0.000000 0.000000 11.399583 0.974260 -33.753917 0.137754 -89.757729 0.139015 -131.360015 -7.634358 10.579106 -12.800142 -17.470123 4.121641 1.000141 0.731304 -1.438314 -7.335818 -0.421703 13.147356 0.000002 -0.000000 0.000001 -3.532561 4.254364 -63.954572 3.402094 5.315524 -65.218915 1.034627 3.326114 -34.549836 0.000001 0.000000 -0.000002 2.434391 7.296046 -69.364089 3.297860 5.266369 -64.088649 0.787094 2.934907 -30.019566 -0.000000 0.000000 0.000002 4.717041 8.075509 -77.582268 2.056305 4.456880 -49.517649 1.539986 3.959690 -42.490610 -0.000000 -0.000000 -0.000002 6.410320 8.363722 -80.414556 1.722730 4.149895 -45.074430 0.636253 2.657142 -26.928190 -0.000002 0.000000 -0.000001 0.751041 18.451082 11.540469 0.000000 0.000000 0.000000 10.590261 23.808718 38.571922 0.000038 97.773133 -0.000049 -34.403028 -20.303934 22.406531 20.470547 7.475586 18.843589 4.151722 -12.160911 -33.847996 -6.346110 -41.944059 -36.535474 -0.000000 -0.000002 0.000002 -0.887077 1.427986 12.684528 1.917405 -3.767462 53.934329 3.057994 -4.374573 69.896768 -0.000000 -0.000000 0.000001 0.770889 -5.199601 54.618827 5.563887 -4.568239 101.238608 4.771466 -4.655766 91.407875 -0.000001 0.000001 0.000004 6.934478 -8.544299 63.908775 2.909287 -4.317413 67.934701 1.862852 -3.727211 53.099451 0.000000 0.000000 0.000000 8.373396 -8.171770 73.989923 2.173672 -3.940975 57.745390 1.042018 -2.937887 39.049885 -0.000000 0.000001 -0.000002 -10.211397 11.447164 6.500487 14.046668 6.512301 0.830003 4.801150 1.267975 -7.329370 -0.000105 -0.000003 -0.000002 -0.000000 0.000000 -0.000000 6.189030 -15.389371 -8.075096 19.914902 -8.051658 -3.030380 -18.486260 -7.051600 9.403582 -2.342332 -0.000000 0.000002 0.000000 -0.000000 -0.000000 
0.688067 93.576546 -1.847676 -6.998620 -4.719056 3.728776 5.295268 2.067162 -2.820884 1.478231 0.545823 -0.771255 0.000000 0.000000 0.000000 1.440799 0.547799 -0.686543 2.278950 5.079157 1.446695 3.068805 -10.293894 2.008880 0.000000 0.000000 -0.000000 -0.595445 -16.331998 -20.041829 0.000000 0.000000 0.000000 11.673892 1.386663 -33.751079 -8.126462 -89.979102 -8.118228 -131.507178 -7.772098 10.489934 -12.800140 -17.470123 4.121644 1.000143 0.731304 -1.438316 -7.335817 -0.421703 13.147352 0.000001 0.000000 0.000000 -3.532559 4.254366 -63.954572 3.402096 5.315523 -65.218922 1.034626 3.326113 -34.549829 0.000001 -0.000001 -0.000000 2.434393 7.296045 -69.364089 3.297857 5.266366 -64.088649 0.787096 2.934905 -30.019566 -0.000000 0.000001 -0.000003 4.717043 8.075509 -77.582261 2.056307 4.456881 -49.517649 1.539986 3.959690 -42.490617 0.000001 0.000001 -0.000002 6.410320 8.363721 -80.414563 1.722730 4.149896 -45.074426 0.636253 2.657141 -26.928192 0.000000 0.000001 -0.000004 0.748013 18.465153 11.541427 0.000000 0.000000 0.000000 10.484200 24.073579 38.792944 0.000052 97.573794 -0.000064 -34.246859 -20.433769 22.645890 20.470545 7.475587 18.843589 4.151720 -12.160908 -33.847993 -6.346120 -41.944059 -36.535478 -0.000005 0.000001 -0.000002 -0.887077 1.427989 12.684529 1.917404 -3.767460 53.934322 3.057995 -4.374573 69.896768 -0.000001 0.000000 -0.000002 0.770889 -5.199597 54.618820 5.563889 -4.568239 101.238601 4.771466 -4.655766 91.407882 0.000002 0.000001 0.000003 6.934477 -8.544296 63.908775 2.909286 -4.317415 67.934701 1.862849 -3.727211 53.099451 0.000000 -0.000000 0.000000 8.373396 -8.171769 73.989923 2.173680 -3.940973 57.745390 1.042020 -2.937888 39.049885 0.000001 0.000000 -0.000001 -10.805377 11.393168 6.430169 15.011070 6.316867 0.909607 4.354598 1.664946 -7.336298 -0.000021 -0.000009 0.000002 -0.000000 0.000000 0.000000 5.581468 -15.253853 -8.366387 20.816296 -7.923188 -2.998944 -18.855248 -7.103302 9.507180 -2.342332 -0.000002 0.000002 0.000000 0.000002 0.000000 
0.835788 93.288116 -1.886297 -6.915322 -4.868497 3.749708 5.293186 2.006905 -2.830484 1.478230 0.459727 -0.763087 0.000000 0.000000 0.000000 1.440798 0.466592 -0.661054 2.287673 4.938015 1.356871 2.959046 -10.117158 1.854506 0.000000 -0.000000 0.000000 -0.595445 -16.332002 -20.041824 0.000000 0.000000 0.000000 11.962416 1.823207 -33.756140 0.220701 -90.209594 0.221197 -131.660666 -7.915215 10.391292 -12.800142 -17.470123 4.121643 1.000142 0.731304 -1.438315 -7.335821 -0.421703 13.147355 0.000000 -0.000001 0.000002 -3.532559 4.254366 -63.954572 3.402097 5.315523 -65.218922 1.034628 3.326113 -34.549832 0.000000 -0.000000 -0.000002 2.434392 7.296045 -69.364089 3.297858 5.266365 -64.088649 0.787092 2.934906 -30.019562 -0.000000 -0.000000 0.000002 4.717043 8.075509 -77.582268 2.056307 4.456882 -49.517652 1.539984 3.959690 -42.490614 0.000001 0.000001 0.000001 6.410321 8.363722 -80.414563 1.722728 4.149897 -45.074430 0.636252 2.657141 -26.928195 -0.000002 0.000000 -0.000002 0.744925 18.479497 11.542407 0.000000 0.000000 0.000000 10.372840 24.349264 39.024381 0.000127 97.366799 -0.000166 -34.080807 -20.568819 22.896737 20.470545 7.475586 18.843589 4.151721 -12.160913 -33.847993 -6.346116 -41.944062 -36.535474 -0.000000 0.000000 -0.000000 -0.887075 1.427990 12.684526 1.917403 -3.767460 53.934326 3.057997 -4.374573 69.896768 0.000001 0.000000 -0.000001 0.770890 -5.199599 54.618823 5.563887 -4.568241 101.238608 4.771464 -4.655764 91.407882 -0.000000 0.000000 0.000000 6.934478 -8.544297 63.908775 2.909286 -4.317413 67.934708 1.862850 -3.727210 53.099448 0.000000 -0.000000 0.000000 8.373398 -8.171769 73.989923 2.173677 -3.940973 57.745390 1.042018 -2.937888 39.049885 0.000002 -0.000000 0.000001 -11.350754 11.349226 6.350295 15.874744 6.102553 0.974442 3.963315 2.078066 -7.330507 -0.000099 0.000000 0.000000 -0.000000 0.000000 0.000000 4.999739 -15.120215 -8.647739 21.653738 -7.801174 -2.972042 -19.191394 -7.147227 9.600232 -2.342332 -0.000002 0.000002 0.000000 -0.000002 0.000000 
